<?xml version="1.0" standalone="no"?><!DOCTYPE svg PUBLIC "-//W3C//DTD SVG 1.1//EN" "http://www.w3.org/Graphics/SVG/1.1/DTD/svg11.dtd"><svg t="1604661832036" class="icon" viewBox="0 0 1280 1024" version="1.1" xmlns="http://www.w3.org/2000/svg" p-id="10603" xmlns:xlink="http://www.w3.org/1999/xlink" width="160" height="128"><defs><style type="text/css"></style></defs><path d="M1194.666667 1024H85.333333a85.333333 85.333333 0 0 1-85.333333-85.333333V85.333333a85.333333 85.333333 0 0 1 85.333333-85.333333h1109.333334a85.333333 85.333333 0 0 1 85.333333 85.333333v853.333334a85.333333 85.333333 0 0 1-85.333333 85.333333" fill="#E3E3E3" p-id="10604"></path><path d="M1280 938.666667V85.333333c0-13.312-3.285333-25.728-8.704-36.906666L637.312 554.965333 32.426667 155.989333 852.394667 1024H1194.666667a85.333333 85.333333 0 0 0 85.333333-85.333333" fill="#D0CFCF" p-id="10605"></path><path d="M170.666667 1024H85.333333a85.333333 85.333333 0 0 1-85.333333-85.333333V85.333333a85.333333 85.333333 0 0 1 170.666667 0v938.666667z" fill="#D54B3D" p-id="10606"></path><path d="M1194.666667 1024h-85.333334V85.333333a85.333333 85.333333 0 0 1 170.666667 0v853.333334a85.333333 85.333333 0 0 1-85.333333 85.333333" fill="#AC3D31" p-id="10607"></path><path d="M640 424.149333L1139.626667 19.2a85.674667 85.674667 0 0 1 121.429333 13.696 88.448 88.448 0 0 1-13.482667 123.136L640 648.533333 32.426667 155.989333A88.448 88.448 0 0 1 18.944 32.853333 85.674667 85.674667 0 0 1 140.373333 19.2L640 424.106667z" fill="#D54B3D" p-id="10608"></path></svg>