<?xml version="1.0" standalone="no"?><!DOCTYPE svg PUBLIC "-//W3C//DTD SVG 1.1//EN" "http://www.w3.org/Graphics/SVG/1.1/DTD/svg11.dtd"><svg t="1604661659410" class="icon" viewBox="0 0 1024 1024" version="1.1" xmlns="http://www.w3.org/2000/svg" p-id="9615" xmlns:xlink="http://www.w3.org/1999/xlink" width="128" height="128"><defs><style type="text/css"></style></defs><path d="M388.7 480.9c41.8-2.2 83.9 0.4 124.8 9.8 44.3 10 87.5 27.5 124 54.9 20.4 15.4 38.3 34.2 51.6 56.1 12 20.8 19.7 44.4 20.5 68.5 1.5 34.7-11.2 68.8-31.2 96.8-20.7 29.1-48.7 52.5-79.2 70.9-70.8 42.3-154.6 59.6-236.5 57.4-52.5-1.9-105.2-12.5-153.1-34.4-38.7-18.1-75.2-43.9-99-80-20.9-30.6-29.8-69.4-22.9-105.9 6.5-36.4 27.2-69 53.1-94.8 23.5-23.4 51.5-42 81.1-56.8 51.9-25.5 109.3-38.8 166.8-42.5z m-13.5 83.2c-19.1 1.1-37.9 5.6-55.8 12.2-39.2 14.9-73.9 43.4-93.1 81-11 21.4-16.6 45.7-14.9 69.8 1.7 28.2 13.6 55.6 32.6 76.4 15.2 17 34.8 29.9 55.9 38.4 48.3 19.3 104.4 15.4 150.8-7.5 37.2-18.2 68.8-49.5 83.4-88.6 10.5-27.2 11.7-58.1 2.4-85.9-6.7-20.8-19.3-39.6-35.2-54.5-33.6-31-80.9-44.8-126.1-41.3" fill="#FFFFFF" p-id="9616"></path><path d="M410.4 668.5c10.5-4 24.2 0.7 27.9 11.8 3.8 11.1-4.5 23.2-15.3 26.1-9.8 3.3-22.2-0.8-26.3-10.8-4.7-10.8 2.9-23.6 13.7-27.1z m-89.5 20.6c13.7-1.8 28.2 1.9 38.8 10.8 9.1 7.2 15 18.2 16.6 29.6 2.3 16.6-4.5 33.8-16.7 45.2-8.7 8-19.8 13.4-31.6 14.7-13 1.6-26.7-1.8-37-9.9-9.1-7-15.5-17.5-17.3-28.9-3-15.9 2.8-32.7 13.9-44.3 8.6-9.4 20.7-15.4 33.3-17.2z" fill="#FFFFFF" p-id="9617"></path><path d="M713 66.1c1.3-0.3 2.7-0.5 4.1-0.4 13.7 0.1 27.5 0 41.2 0 3.5 1 7.2 1.4 10.9 1.2 5.1 1.4 10.4 1.2 15.5 2.6 4.2 1.4 8.9 0.5 13 2.5 8.6 2.1 17.4 3.4 25.4 7.2 18.6 4.7 35.5 13.9 52.4 22.6 6.2 2.6 11.1 7.6 17 10.8 3.4 1.7 6.1 4.6 9.5 6.2 10.1 8.7 21.9 15.8 30.5 26.2 2.4 2.9 5.8 4.7 8 7.7 3.6 4.5 8.3 7.8 11.6 12.5 2.3 3.4 5.4 6 7.8 9.2 9.5 13.2 19.3 26.5 26.4 41.2 4.9 7.3 7.8 15.6 11.6 23.5 3.8 10.6 8.8 20.9 11.3 32 5.8 19.6 9.6 39.8 11.1 60.1 1.6 29.5-0.1 59.4-7.2 88.2-2.4 8.7-3.7 18.2-9.8 25.2-10.2 13.6-30.2 19.2-45.7 11.6-14.4-6.4-24-22.1-22.7-37.9 0.1-7.1 3.7-13.5 4.6-20.5 0.8-6.1 2.8-11.9 3-18 3-18.3 2.4-36.9 0.4-55.3-2.3-11.9-3.8-24-8.1-35.4-2.3-5.6-3.4-11.6-5.9-17.1-4.4-9.5-8.8-19.1-14.2-28.2-4-5.4-6.7-11.7-11.2-16.7-3.6-4.1-6.6-8.7-10-12.9-8.6-9.1-17.3-18.3-27.4-25.9-10.1-9.3-22.4-15.7-34-22.9-5.3-1.9-9.6-5.9-15.3-6.7-6.7-3.3-14-5-20.8-8-7.4-2.2-14.9-3.6-22.3-5.7-10.5-0.4-20.7-3.5-31.3-2.7-9.3 0.5-18.8-1.1-27.9 1.2-7.9-0.1-16.2 1.1-23.5-2.6-4.8-2.6-10.4-4.6-13.5-9.4-3.6-2.1-3.8-6.6-5.9-9.9-2.7-4.1-4-9-3.8-13.9 0.2-4.1-0.5-8.3 0.8-12.3 3.6-14.4 16.6-25.8 31.3-27.6 4.4-1.6 9-0.1 13.1-1.7z" fill="#FFA21F" p-id="9618"></path><path d="M719 204c9.9-0.8 19.9-0.1 29.8-0.4 4.2-0.3 8.3 1.2 12.4 1.9 10.8 1.4 21.1 4.9 31.3 8.6 9.4 4.8 19.5 8.9 27.7 15.7 5.8 3.3 10.7 7.9 16.2 11.6 7.8 8.4 14.9 17.3 22.1 26.2 14.7 22.2 24.3 48 25.7 74.7 0.4 9.5 0.4 19.1-0.5 28.6-2.6 13.2-3.6 28.2-13.8 38.1-7.8 6.8-18.5 11.1-29 9.2-8.5-1.5-16.8-5.9-21.8-13.1-5.8-6.9-7.3-16.5-6.6-25.2 1-5.5 2.2-10.9 3.3-16.4 4.5-30.3-9.9-62.6-35.8-79.1-10.3-6.2-21.7-11-33.7-12.5-8.1-0.5-16.2-0.1-24.2 0.2-8.7 0.6-16.9-3.8-23.4-9.2-4.6-5-8-11.1-10-17.6-1.1-8.8-0.5-18.4 4.9-25.8 5.6-8.7 15.3-14.3 25.4-15.5z" fill="#FFA21F" p-id="9619"></path><path d="M402 211.2c23.4-2 48.6 2.3 67.4 17.2 13.5 10.5 23.9 25.5 27.8 42.3 3.3 11.1 2.3 22.8 1.8 34.2-1.5 12.1-4.5 23.9-7.5 35.7-1.6 8.6-5.5 17-4.5 26 0.3 3.2 3 6.2 6.3 6.3 7.2 0.5 13.7-3 20.1-5.5 15.7-7.2 31.3-14.6 47-21.8 17.4-7 34.9-13.9 53.2-18.3 22-5.2 44.8-8.5 67.3-5.5 18.5 2.5 37 10 49.6 24.1 14.3 15.7 20.8 37.3 21.7 58.2 1.3 22.3-2.3 45-10.4 65.8-3.5 8.5-8.2 17.8-5.2 27.2 1.9 6.3 8 10.1 14.3 11.2 26.7 4.5 52.9 14.2 74.8 30.4 16.2 12.1 29.8 28 38.1 46.5 11.2 24.1 13.9 51.7 9.6 77.7-5.5 35-21.5 67.6-41.8 96.2-33.5 47.4-79.2 85-128.9 114.2-71.5 41.6-151.7 67.2-233.5 78.7-81.9 11.1-166.5 8.2-246-15.4-47.5-14.1-92.8-36.8-131-68.5-35.5-29.2-64-67.8-78-111.9-15.2-47-14.1-98.1-2.7-145.8C25 553.2 51.6 499.6 84.1 450.8c39.1-58.3 87.2-110.5 141.8-154.6 24.9-19.7 51.1-37.7 79-52.7 30.2-16.1 62.8-29.1 97.1-32.3z m-13.3 269.7c-57.5 3.7-114.8 17-166.7 42.5-29.6 14.8-57.6 33.3-81.1 56.8-26 25.8-46.7 58.4-53.2 94.8-6.9 36.5 2 75.3 22.9 105.8 23.8 36.1 60.3 61.9 99 80 47.9 21.9 100.6 32.5 153.1 34.4 81.9 2.2 165.7-15.1 236.5-57.4 30.5-18.4 58.4-41.8 79.2-70.9 20-27.9 32.6-62.1 31.2-96.8-0.8-24.1-8.5-47.7-20.5-68.5-13.3-21.9-31.2-40.7-51.6-56.1-36.5-27.4-79.7-44.9-124-54.9-40.9-9.3-83-11.9-124.8-9.7" fill="#E82014" p-id="9620"></path><path d="M375.2 564.1c45.2-3.5 92.5 10.4 126.1 41.4 15.9 14.9 28.5 33.6 35.2 54.5 9.3 27.7 8.1 58.6-2.4 85.9-14.7 39.1-46.3 70.4-83.4 88.6-46.4 22.9-102.5 26.8-150.8 7.5-21.1-8.5-40.7-21.4-55.9-38.4-19-20.9-30.9-48.2-32.6-76.4-1.7-24.1 3.9-48.4 14.9-69.8 19.2-37.6 53.9-66 93.1-81 17.9-6.8 36.7-11.2 55.8-12.3z m35.2 104.4c-10.8 3.4-18.4 16.3-13.7 27.1 4.1 10 16.5 14.1 26.3 10.8 10.8-2.9 19.1-15 15.3-26.1-3.6-11.1-17.4-15.8-27.9-11.8z m-89.5 20.6c-12.6 1.8-24.7 7.8-33.4 17.3-11 11.6-16.8 28.4-13.9 44.3 1.8 11.3 8.2 21.9 17.3 28.9 10.3 8.1 24 11.5 37 9.9 11.8-1.3 22.9-6.7 31.6-14.7 12.2-11.4 19.1-28.5 16.7-45.2-1.6-11.5-7.5-22.4-16.6-29.6-10.5-9.1-25-12.8-38.7-10.9" fill="" p-id="9621"></path></svg>